<?xml version="1.0" encoding="UTF-8" standalone="no"?>
<!-- Created with Inkscape (http://www.inkscape.org/) -->

<svg
   xmlns:dc="http://purl.org/dc/elements/1.1/"
   xmlns:cc="http://creativecommons.org/ns#"
   xmlns:rdf="http://www.w3.org/1999/02/22-rdf-syntax-ns#"
   xmlns:svg="http://www.w3.org/2000/svg"
   xmlns="http://www.w3.org/2000/svg"
   xmlns:sodipodi="http://sodipodi.sourceforge.net/DTD/sodipodi-0.dtd"
   xmlns:inkscape="http://www.inkscape.org/namespaces/inkscape"
   width="744.09448819"
   height="1052.3622047"
   id="svg2"
   version="1.1"
   inkscape:version="0.47pre4 r22446"
   sodipodi:docname="titlepg.svg">
  <defs
     id="defs4">
    <inkscape:perspective
       sodipodi:type="inkscape:persp3d"
       inkscape:vp_x="0 : 526.18109 : 1"
       inkscape:vp_y="0 : 1000 : 0"
       inkscape:vp_z="744.09448 : 526.18109 : 1"
       inkscape:persp3d-origin="372.04724 : 350.78739 : 1"
       id="perspective10" />
  </defs>
  <sodipodi:namedview
     id="base"
     pagecolor="#ffffff"
     bordercolor="#666666"
     borderopacity="1.0"
     inkscape:pageopacity="0.0"
     inkscape:pageshadow="2"
     inkscape:zoom="0.49497475"
     inkscape:cx="-339.64327"
     inkscape:cy="241.54203"
     inkscape:document-units="px"
     inkscape:current-layer="layer1"
     showgrid="false"
     inkscape:window-width="1920"
     inkscape:window-height="1179"
     inkscape:window-x="1398"
     inkscape:window-y="0"
     inkscape:window-maximized="1">
    <inkscape:grid
       type="xygrid"
       id="grid3606" />
  </sodipodi:namedview>
  <metadata
     id="metadata7">
    <rdf:RDF>
      <cc:Work
         rdf:about="">
        <dc:format>image/svg+xml</dc:format>
        <dc:type
           rdf:resource="http://purl.org/dc/dcmitype/StillImage" />
        <dc:title />
      </cc:Work>
    </rdf:RDF>
  </metadata>
  <g
     inkscape:label="Layer 1"
     inkscape:groupmode="layer"
     id="layer1">
    <rect
       style="fill:#dce5e9;fill-opacity:1;stroke:none"
       id="rect2816"
       width="824.28577"
       height="368.8009"
       x="-40.000004"
       y="137.96175" />
    <flowRoot
       xml:space="preserve"
       id="flowRoot2818"
       style="fill:black;stroke:none;stroke-opacity:1;stroke-width:1px;stroke-linejoin:miter;stroke-linecap:butt;fill-opacity:1;font-family:Bitstream Vera Sans;font-style:normal;font-weight:normal;font-size:40px"><flowRegion
         id="flowRegion2820"><rect
           id="rect2822"
           width="745.71429"
           height="368.57144"
           x="1.4285715"
           y="139.50504" /></flowRegion><flowPara
         id="flowPara2824" /></flowRoot>    <path
       sodipodi:type="arc"
       style="fill:#ffffff;fill-opacity:1;stroke:none"
       id="path2826"
       sodipodi:cx="94.285713"
       sodipodi:cy="148.07646"
       sodipodi:rx="74.285713"
       sodipodi:ry="74.285713"
       d="m 168.57143,148.07646 a 74.285713,74.285713 0 1 1 -148.57143,0 74.285713,74.285713 0 1 1 148.57143,0 z" />
    <path
       d="m 168.57143,148.07646 a 74.285713,74.285713 0 1 1 -148.57143,0 74.285713,74.285713 0 1 1 148.57143,0 z"
       sodipodi:ry="74.285713"
       sodipodi:rx="74.285713"
       sodipodi:cy="148.07646"
       sodipodi:cx="94.285713"
       id="path3600"
       style="fill:#ffffff;fill-opacity:1;stroke:none"
       sodipodi:type="arc"
       transform="matrix(1.8461539,0,0,1.8461539,68.79121,18.99024)" />
    <path
       transform="matrix(0.86538466,0,0,0.86538466,328.4066,-1.4952066)"
       sodipodi:type="arc"
       style="fill:#dce5e9;fill-opacity:1;stroke:none"
       id="path3602"
       sodipodi:cx="94.285713"
       sodipodi:cy="148.07646"
       sodipodi:rx="74.285713"
       sodipodi:ry="74.285713"
       d="m 168.57143,148.07646 a 74.285713,74.285713 0 1 1 -148.57143,0 74.285713,74.285713 0 1 1 148.57143,0 z" />
    <path
       d="m 168.57143,148.07646 a 74.285713,74.285713 0 1 1 -148.57143,0 74.285713,74.285713 0 1 1 148.57143,0 z"
       sodipodi:ry="74.285713"
       sodipodi:rx="74.285713"
       sodipodi:cy="148.07646"
       sodipodi:cx="94.285713"
       id="path3604"
       style="fill:#ffffff;fill-opacity:1;stroke:none"
       sodipodi:type="arc"
       transform="matrix(0.69230773,0,0,0.69230773,344.72528,24.133412)" />
    <rect
       style="fill:#fffbf1;fill-opacity:1;stroke:#dcdcdc;stroke-width:4.99999952000000025;stroke-miterlimit:4;stroke-opacity:1;stroke-dasharray:none"
       id="rect2832"
       width="140"
       height="200.00002"
       x="68.571426"
       y="706.64789" />
    <rect
       y="686.64789"
       x="88.571426"
       height="200.00002"
       width="140"
       id="rect3616"
       style="fill:#fffbf1;fill-opacity:1;stroke:#dcdcdc;stroke-width:4.99999952000000025;stroke-miterlimit:4;stroke-opacity:1;stroke-dasharray:none" />
    <rect
       style="fill:#fffbf1;fill-opacity:1;stroke:#dcdcdc;stroke-width:4.99999952000000025;stroke-miterlimit:4;stroke-opacity:1;stroke-dasharray:none"
       id="rect3618"
       width="140"
       height="200.00002"
       x="115.71429"
       y="660.93359" />
    <rect
       y="638.07648"
       x="168.57143"
       height="200.00002"
       width="140"
       id="rect3620"
       style="fill:#fffbf1;fill-opacity:1;stroke:#dcdcdc;stroke-width:4.99999952000000025;stroke-miterlimit:4;stroke-opacity:1;stroke-dasharray:none" />
    <rect
       style="fill:#dce5e9;fill-opacity:1;stroke:none"
       id="rect3606"
       width="812.85712"
       height="137.14285"
       x="-27.142857"
       y="853.79077" />
    <path
       style="fill:#d3dce0;fill-opacity:1;stroke:none;stroke-width:5;stroke-miterlimit:4;stroke-opacity:1;stroke-dasharray:none"
       d="M 218.8125 853.78125 C 218.69751 864.08597 218.46549 874.54407 218.0625 885.15625 L 307.96875 889.03125 C 312.55289 906.41922 317.26331 923.57784 321.875 939.71875 L 403.34375 936.09375 C 408.33583 955.18028 415.10297 973.63696 425.21875 990.9375 L 499.5625 990.9375 L 579.75 967 C 572.29434 958.70767 566.05374 950.38448 560.71875 942.0625 L 686.09375 883.15625 C 664.31098 881.31784 654.18828 869.65379 647.40625 853.78125 L 218.8125 853.78125 z "
       id="path2831" />
    <path
       style="fill:#fffbf1;fill-opacity:1;stroke:#dcdcdc;stroke-width:4.99999952;stroke-miterlimit:4;stroke-opacity:1"
       d="m 226.5265,662.32013 140,12.12183 c 12.12183,65.65992 17.17259,131.30964 11.11168,193.9391 l -141.01015,-6.06092 c 3.03045,-79.80205 -2.52539,-152.01776 -10.10153,-200.00001 z"
       id="rect3622"
       sodipodi:nodetypes="ccccc" />
    <path
       sodipodi:nodetypes="ccccc"
       id="path3640"
       d="m 294.97176,725.95975 138.98985,19.1929 c 8.08122,53.53809 23.2335,102.01521 42.42641,165.65482 l -135.95939,6.06091 C 322.24588,853.22877 302.5479,773.942 294.97176,725.95975 z"
       style="fill:#fffbf1;fill-opacity:1;stroke:#dcdcdc;stroke-width:4.99999952;stroke-miterlimit:4;stroke-opacity:1" />
    <path
       style="fill:#fffbf1;fill-opacity:1;stroke:#dcdcdc;stroke-width:4.99999952;stroke-miterlimit:4;stroke-opacity:1"
       d="m 396.68028,779.49783 133.93909,7.07107 c 21.4358,54.1887 21.39274,106.09173 67.68022,157.5736 l -142.0203,42.4264 C 409.81226,926.9699 415.3681,849.70344 396.68028,779.49783 z"
       id="path3642"
       sodipodi:nodetypes="ccccc" />
    <path
       sodipodi:nodetypes="ccccc"
       id="path3644"
       d="m 488.90874,747.17295 128.88833,-7.07107 c 54.77084,37.01611 27.45366,115.1831 86.87312,120.19796 L 577.80218,919.89883 C 495.97981,897.67547 538.91129,807.27703 488.90874,747.17295 z"
       style="fill:#fffbf1;fill-opacity:1;stroke:#dcdcdc;stroke-width:4.99999952;stroke-miterlimit:4;stroke-opacity:1" />
  </g>
</svg>
